<?xml version="1.0" encoding="UTF-8"?>
<svg version="1.1" viewBox="0 0 2000 2000" width="1280" height="1280" xmlns="http://www.w3.org/2000/svg">
<path transform="translate(804,337)" d="m0 0h394l12 3 14 7 10 8 8 8 8 13 4 9 2 11 1 27 1 94 1 2v24h52l12 1 2 3v8l-3 5-19 1h-43v27l175 1 3 2 1 10-3 5h-176l1 9-2 4v22l172 1 5 3v10l-1 3-2 1h-174v32h42l15 1 3 3v9l-2 4-25 1h-22l-11-1v30l133 1 1 3v13l-1 1-118 1-15-1 1 32 51 1 2 4-1 10-2 1-27 1h-23l-1 29 33 2 29 2 1-50 2-1h8l5 2 1 1 1 50 30 3 13 4 11 7 7 9 4 8 2 8 1 140-6-2-13-8-17-8-13-3-9-1h-11l-17 3-16 6-11 7-13 13-11 15-9 17-2 6-1 7v120l174 1 4 4v11l-4 2h-175v36h30l12 1 4 2 1 7-2 8-2 1h-44v8l-5 16-7 11-8 9-13 9-16 7-8 2-10 1h-388l-12-3-14-8-12-11-6-7-7-12-3-10-2-11-169-1-3-3-1-7 3-6 4-2 165-1v-35l-176-1-4-4v-7l5-6 10-1 165-1 1-38 3-17 9-25 13-27 12-21 12-19 10-11 9-11 10-11 1-3-3-1-5-17v-4l-13 11-10 11-7 9-12 15-11 14-10 15-11 18-10 19-16 38-4 15-3 16-3 6-4 3h-8l-4-4-2-6 1-10 7-25 12-32 6-17 14-26 8-12 13-18 10-14 9-10 7-8 12-13 8-9 8-7 10-8-2-11-2-9-5 2-11 8-7 7-13 10-23 23-18 22-13 19-9 14-12 20-11 21-9 20-11 29-10 34-3 6-5 2-6-1-5-6-1-2v-12l7-25 3-8-65-1-4-5 1-9 4-3 71-1 3-9 9-21h-109l-5-5v-8l4-5 7-1 113-1 10-15 5-8v-2l-62-1-3-6 1-9 5-3 65-1 9-1 9-15 8-11h-74l-3-3-2-4 1-6 3-5 90-1 3-1 1-2 1-24h-99l-4-4v-8l2-4 2-1 21-1h78v-28h-172l-6-2-2-4 1-8 2-2 84-1h93v-30h-179l-3-5-1-5 3-6 2-2 178-1v-29h-174l-4-4v-7l3-5 21-1h154v-29h-106l-3-4-1-7 4-6 2-1 104-1v-28l-4 1h-117l-4-5-1-6 4-6 1-1 91-1h30v-29h-174l-4-6v-6l3-5 2-1 172-1 1-27h-172l-4-6v-7l5-5 74-1h97v-27h-41l-3-5v-7l2-4 3-1h39v-134l1-15 3-11 6-12 8-10 8-8 14-8 12-5zm96 51-6 4-3 4 1 9 5 5 2 1h8l7-6 1-2v-6l-4-6-4-3zm58 14v9l2 2h91l1-1 1-8-5-2zm279 141-4 26-3 30-3 10-1 9-2 52v49l1 49 3 30 2 10v15l-1 8 6 1 1-2v-32l1-181 2-3v-55l-1-16zm-469 19-1 116v252l5-2 12-9 13-11 1-3-5-8-2-12-3-90-1-40-2-40-2-20-2-54-2-30-4-23-5-26zm62 477-10 9-9 10-13 18-8 16-12 26-6 15-2 9-1 12v39h465v-117h-8v19l-2 22-4 19-3 10-2 28-166 1h-96l-166-1 4-22 4-15 13-30 9-20 11-21 5-13-1-3-5 4 5-12v-3zm1 8m165 168-11 2-10 5-9 8-6 10-3 12v19l3 10 6 8 14 8 9 3h16l13-4 12-7 7-8 4-11 1-6v-10l-2-11-5-10-6-7-9-6-11-4z" fill="#FCFCFC"/>
<path transform="translate(768,457)" d="m0 0h465l1 1 1 64 4 2v27l-2-4-4 32-2 20-3 10-1 9-2 52v49l1 49 3 30 2 10v15l-2 8 6 1v1h-16l-20-1-5-1-2-9-12-58-1-9h28l-4-10-8-14-6-5h-200l-8 16-4 13h29l-1 14-8 72-1 1-34 5-35 8h-2l1-8 3-13 2-32-5 2-1 3-8 7-14 12-1 3-1 33-5 1-1-1-1-27-2-10-11-9-11-11-2-1 1 37 2 9 6 10 6 7-4 3-14 6-10 2v-11l-15 10-11 7-3 9-5 2-1-1-1-10-4-2-17-12-3-2v-2l-5-2-1-6-2-65-2-61-1-17-2-20-2-54-2-30-4-23-4-21v-5l-1 4-1 18h-1v-126z" fill="#83A947"/>
<path transform="translate(1045,919)" d="m0 0h41l21 3 24 7 18 7 15 8 4 5v15l-1 3-5 1-2 14 15 2 6 4 10 13 6 10 1 3v60h31v2h-3l1 2v17l-2 22-4 19-3 10-2 28-1 1-166 1h-96l-162-1-4-1 1-13 5-21 13-31 11-24 10-19 5-13-1-1-5 3 2-6 4-10-2-1 9-10 14-14 8-7 8-8 8-7 9-8 18-13 23-13 34-16 17-7 26-8 23-5z" fill="#83A947"/>
<path transform="translate(1020,855)" d="m0 0h25l24 2 27 5 24 7 17 7 19 11 12 9 10 9 8 8 10 13 10 15 12 25 9 25 3 13v9l-3-3-14-27-9-14-6-7-11-9-12-9-17-10-17-8-19-7-24-6-16-2-15-1h-14l-28 2-30 5-23 6-25 9-27 12-34 17-13 9-12 10-11 9-14 12-11 9-1-3-3-1-5-17v-4l-13 11-10 11-7 9-12 15-11 14-10 15-11 18-10 19-16 38-4 15-3 16-3 6-4 3h-8l-4-4-2-6 1-10 7-25 12-32 6-17 14-26 8-12 13-18 10-14 9-10 7-8 12-13 8-9 8-7 10-8-2-11-2-9-2-2 10-8 20-13 19-11 26-14 19-8 24-8 33-9 26-5 19-2z" fill="#83A947"/>
<path transform="translate(373,1419)" d="m0 0h36l38 1 12 3 9 5 10 9 6 13 2 12-1 14-4 13-6 8-8 7-8 4 6 11 9 16 10 15 4 7v3h-36l-5-8-13-20-10-17-1-1-17-1v46h-35v-139zm33 28v36h33l7-4 3-5 1-4v-9l-4-8-7-4-3-1-17-1z" fill="#FDFDFD"/>
<path transform="translate(682,1419)" d="m0 0h57l25 2 14 5 8 6 5 6 5 10 2 7 1 9-2 13-4 11-5 9-7 6-9 4-6 1 4 7 12 17 14 21 3 6h-39l-12-18-11-17-7-12-16-1 1 47-1 1h-33v-139zm33 29v35h36l8-4 4-7 1-3v-7l-4-8-5-4-8-2z" fill="#FDFDFD"/>
<path transform="translate(522,1417)" d="m0 0 33 1 1 94 4 11 5 4 6 2 16 1 10-3 5-5 2-8 1-95h35v97l-2 15-4 9-7 9-8 6-10 4-17 3h-24l-18-4-8-4-10-9-6-8-4-10-2-15v-42l1-52z" fill="#FCFCFC"/>
<path transform="translate(1019,876)" d="m0 0h47l26 4 21 6 18 8 22 12 14 10 5 5-5-2-23-12-26-10-22-5-24-3h-43l-25 3-26 5-24 7-21 8-27 12-20 10-20 13-25 16-14 11-10 9-5 5-13 12-13 16-12 15-11 14-10 15-11 18-10 19-16 38-4 15-3 16-3 6-4 3h-8l-4-4-2-6 1-10 7-25 12-32 6-17 14-26 8-12 13-18 10-14 9-10 7-8 12-13 8-9 8-7 7-6 7-3 16-11 19-12 30-18 15-7 20-8 36-12 25-6 27-4z" fill="#FCFCFC"/>
<path transform="translate(873,1419)" d="m0 0h34l3 4 12 30 16 38 11 27 11 28 4 10v3h-35l-6-13-5-12-20-1h-32l-9 24-2 2h-36l3-9 8-19 20-53 14-35 7-18zm16 39-4 10-11 33v3h33l-9-26-7-19z" fill="#FDFDFD"/>
<path transform="translate(1049,754)" d="m0 0h22l75 1 2 7 10 64 5 30-5-1-19-9-22-8-22-5-32-4-30-1-2-1 3-43 3-29z" fill="#83A947"/>
<path transform="translate(988,1420)" d="m0 0 35 1v110h64v28h-99l-1-1v-135z" fill="#FDFDFD"/>
<path transform="translate(1515,1421)" d="m0 0h19l1 4-1 56h78v-60h16l1 1v136l-1 1h-16l-1-52v-10h-77v62h-19z" fill="#FDFDFD"/>
<path transform="translate(1241,1420)" d="m0 0 85 1v14l-1 1-13 1h-53v44h44l18 1v13l-1 2-61 1v47h67l1 6-1 8-1 1h-85v-139z" fill="#FDFDFD"/>
<path transform="translate(1333,1015)" d="m0 0h27l16 5 12 7 13 11 8 10 5 11 4 16v21l-4 14-6 11-6 7-14 11-16 8-10 3-7 1h-18l-14-3-16-7-10-8-7-7-7-11-5-12-2-8v-23l4-16 7-13 9-11 13-9 12-5zm1 12-14 4-14 8-8 7-6 10-3 9-2 15 1 16 5 16 6 8 7 6 16 8 9 3 6 1h20l12-3 14-8 9-8 8-14 3-11v-21l-3-12-7-13-7-7-14-9-11-4-6-1z" fill="#FDFDFD"/>
<path transform="translate(1423,1419)" d="m0 0h20l14 3 16 8 4 4-2 5-6 7-5-1-12-6-14-3h-16l-16 4-12 7-9 9-6 10-3 7-2 17 1 17 3 10 6 10 6 7 10 6 13 4 8 1h13l15-3 10-5 6-4 7 4 3 2-1 4-7 6-14 8-8 3-13 2h-14l-16-3-16-7-10-8-9-10-8-16-3-11-1-8v-10l2-14 5-13 10-16 10-11 14-9 15-5z" fill="#FDFDFD"/>
<path transform="translate(1099,1421)" d="m0 0h103l2 1v12l-2 2-43 1v121l-1 1h-15v-122h-34l-10-1-3-3v-9z" fill="#FDFDFD"/>
<path transform="translate(1342,1054)" d="m0 0 12 1 8 4 5 4 5 9 1 4v12l-3 8-7 8-10 5-10 1-10-2-6-4-7-8-3-8v-12l3-8 8-9 9-4zm0 9-8 3-6 7-2 10 2 8 5 6 6 3h10l8-4 5-5 1-4v-12l-3-5-5-5-7-2z" fill="#FDFDFD"/>
<path transform="translate(929,678)" d="m0 0h1v42l-2 13-9 11-7 7-7 5h-3l-1-2v-37l11-10 7-10 8-15z" fill="#FDFDFD"/>
<path transform="translate(792,810)" d="m0 0 6 4 12 10 9 7 1 2v39l-2 1-9-5-11-9-6-7-1-3v-37z" fill="#FDFDFD"/>
<path transform="translate(855,686)" d="m0 0h1v51l-3 6-4 5-8 7-8 6-5 1-1-4v-29l8-10 11-14 6-12z" fill="#FDFDFD"/>
<path transform="translate(792,688)" d="m0 0 3 4 5 10 9 12 9 10 2 3 1 34-1 2-6-2-14-11-7-9-1-6z" fill="#FDFDFD"/>
<path transform="translate(854,810)" d="m0 0h2v37l-3 9-8 8-10 7-7 1-1-36 2-5 13-10z" fill="#FDFDFD"/>
<path transform="translate(929,747)" d="m0 0h1v40l-8 10-7 7-10 7h-3l-1-12v-26l3-5 14-11 8-7z" fill="#FDFDFD"/>
<path transform="translate(853,755)" d="m0 0h3v37l-3 7-8 7-11 10-6 1-1-6v-30l2-6 12-9z" fill="#FDFDFD"/>
<path transform="translate(868,678)" d="m0 0h2l7 19 6 9 12 12-1 38-5-1-10-8-9-10-2-4z" fill="#FDFDFD"/>
<path transform="translate(793,755)" d="m0 0 8 6 10 9 8 6 1 2v39l-6-1-12-9-9-10-1-2v-39z" fill="#FDFDFD"/>
<path transform="translate(868,748)" d="m0 0h2l7 8 10 8 6 5 1 2v40l-6-1-11-7-8-9-1-3z" fill="#FDFDFD"/>
<path transform="translate(728,1290)" d="m0 0h9l5 2 1 6-3 7-1 1-17 1h-41l-4-4v-9l3-3z" fill="#FDFDFD"/>
<path transform="translate(1095,1026)" d="m0 0h30v32h-30l-1-1z" fill="#FDFDFD"/>
<path transform="translate(1266,1290)" d="m0 0h29l15 1 2 2v10l-5 4h-45l-3-3-2-4 1-5 2-4z" fill="#FDFDFD"/>
<path transform="translate(1106,1110)" d="m0 0h14v33l-1 1h-32l-3-2v-10l5-1h16v-20z" fill="#FDFDFD"/>
<path transform="translate(980,980)" d="m0 0 3 3 7 14 9 10 2 3v27l-5-1-12-9-4-6z" fill="#FDFDFD"/>
<path transform="translate(1026,982)" d="m0 0 2 1v36l-3 6-11 9-3 2h-3l-1-2v-26l5-5 10-14 3-6z" fill="#FDFDFD"/>
<path transform="translate(980,1072)" d="m0 0 5 2 7 6 8 6 1 4v29l-5-1-13-11-3-3z" fill="#FDFDFD"/>
<path transform="translate(1025,1071)" d="m0 0h2l1 2v16l-1 14-7 8-8 7-4 1-1-3v-29l3-4 5-3z" fill="#FDFDFD"/>
<path transform="translate(913,984)" d="m0 0h2l9 19 9 11 1 2v10l-1 14-5-1-9-7-4-5-2-3z" fill="#FDFDFD"/>
<path transform="translate(912,1074)" d="m0 0 4 2 10 8 7 5v32l-7-3-10-8-3-3-1-5z" fill="#FDFDFD"/>
<path transform="translate(1086,953)" d="m0 0h30l1 1 1 30-1 1h-13v-20l-15 2h-5l-1-1v-10z" fill="#FDFDFD"/>
<path transform="translate(730,1609)" d="m0 0h17l9 2 5 5 1 2v9l-6 7-2 1 1 5 6 8v3l-6-1-7-9-2-4-12-2v14l-4 1-2-1-1-8v-23l1-8zm4 5-1 3v11l1 3 7 1 10-1 5-3 1-5-2-5-4-3-3-1z" fill="#FDFDFD"/>
<path transform="translate(913,1035)" d="m0 0 11 7 8 6 1 1v30l-5-1-11-9-4-4-1-3v-26z" fill="#FDFDFD"/>
<path transform="translate(1349,1608)" d="m0 0 11 2 7 6 4 9-1 11-5 8-5 4-4 2-8 1-9-2-8-7-3-7v-11l4-8 7-6zm-3 5-7 3-4 5-1 4v9l3 6 6 5 9 1 8-4 4-7v-12l-4-6-4-3-3-1z" fill="#FDFDFD"/>
<path transform="translate(981,1033)" d="m0 0 7 4 9 6 4 3v29l-4 1-15-12-2-4v-19z" fill="#FDFDFD"/>
<path transform="translate(958,986)" d="m0 0h1v13l-1 25-3 6-10 9-5 2-1-1v-25l10-13 6-9z" fill="#FDFDFD"/>
<path transform="translate(1026,1031)" d="m0 0h1v30l-5 5-11 10-3-1-1-7v-23l9-6 9-7z" fill="#FDFDFD"/>
<path transform="translate(957,1074)" d="m0 0h1v32l-4 5-11 8h-4v-30l10-8z" fill="#FDFDFD"/>
<path transform="translate(1125,1609)" d="m0 0h16l9 3 4 4 1 3v8l-4 6-6 3 4 8 3 4v3l-6-2-6-7-2-5-10-1-1 12-5 1-1-13 1-26zm2 5v17h16l5-2 1-2v-8l-5-4-3-1z" fill="#FDFDFD"/>
<path transform="translate(678,1609)" d="m0 0h15l6 3 2 4-9-1h-15l-7 4-2 3-1 11 3 6 5 4 8 2 8-1 3-2 1-8-9-2v-4h12l2 1 1 3v10l-3 5-6 3h-15l-7-3-5-4-4-7v-12l4-7 6-5z" fill="#FDFDFD"/>
<path transform="translate(957,1036)" d="m0 0h1v29l-5 5-8 7-5 2-1-1v-30l14-9z" fill="#FDFDFD"/>
<path transform="translate(1401,1609)" d="m0 0h28l1 5-4 1-21-1v13h18l3 3-2 1h-19l1 13 23 1-1 5h-26l-3-1v-39z" fill="#FDFDFD"/>
<path transform="translate(885,1609)" d="m0 0 6 2 1 28 2 4 4 2h10l4-3 1-3 1-21v-7l1-1h5l1 16-1 14-3 5-4 4-6 2h-9l-7-3-5-5-2-7v-16z" fill="#FDFDFD"/>
<path transform="translate(1057,1610)" d="m0 0h5l1 25 2 7 7 3h7l4-2 2-4 1-28 1-1h5l1 6v15l-2 11-5 6-5 2-10 1-8-3-5-5-2-8v-24z" fill="#FDFDFD"/>
<path transform="translate(913,1115)" d="m0 0 5 2 8 6 7 5 1 24h-7l-8-5-5-6-1-3z" fill="#FDFDFD"/>
<path transform="translate(980,1115)" d="m0 0 4 1 11 8 6 5 1 12v10h-6l-9-5-5-6-1-3-1-11z" fill="#FDFDFD"/>
<path transform="translate(1025,1115)" d="m0 0h3v17l-3 9-8 8-4 2h-5l-1-2v-22l12-7z" fill="#FDFDFD"/>
<path transform="translate(1198,1609)" d="m0 0 5 3 4 8 10 30-2 1-4-3-2-8h-21l-5 9-5 1 1-6 6-16 6-14 4-4zm-1 7-4 6-4 11v2l7 1h11l-1-5-5-12-2-3z" fill="#FDFDFD"/>
<path transform="translate(956,1117)" d="m0 0h2v17l-2 10-4 5-5 3h-8v-24l12-7z" fill="#FDFDFD"/>
<path transform="translate(614,1611)" d="m0 0 7 1 5 10 7 19 2 5-1 4-5-2-3-8h-20l-5 9h-4l3-11 9-20 4-6zm2 6-5 8-3 9 1 1h16l-2-9-4-9z" fill="#FDFDFD"/>
<path transform="translate(840,1609)" d="m0 0h14l7 3 1 5-3 1-7-3-7-1-9 3-4 6v13l4 6 6 3h10l5-3h3l-1 5-6 4h-13l-9-5-6-10v-13l5-8 7-5z" fill="#FDFDFD"/>
<path transform="translate(1173,1042)" d="m0 0h13l1 1v16l-7 1h-6l-1 13-1 1h-15v-13h15v-18z" fill="#FDFDFD"/>
<path transform="translate(1289,877)" d="m0 0h82v4l-5 2h-25l-36-1-12-1-4-2z" fill="#83A947"/>
<path transform="translate(996,1610)" d="m0 0h39l-2 5-14 1-1 33-5 1-1-1v-34h-15l-2-4z" fill="#FDFDFD"/>
<path transform="translate(1269,1609)" d="m0 0 3 2-1 4h-14v33l-1 1h-5v-34h-16l-2-1 1-4z" fill="#FDFDFD"/>
<path transform="translate(1289,888)" d="m0 0h85l1 4-24 1h-30l-32-1z" fill="#83A947"/>
<path transform="translate(1162,1125)" d="m0 0h5v12l-4 2-18 3h-5l-1-1v-10l2-2 15-2z" fill="#FDFDFD"/>
<path transform="translate(1063,957)" d="m0 0h3l1 15-4 4-6 1-2 6-4 2-9-1v-4l8-3v-14l4-3z" fill="#FDFDFD"/>
<path transform="translate(1045 1e3)" d="m0 0h13l3 1v14l-1 1h-28l-3-1v-3l15-1v-10z" fill="#FDFDFD"/>
<path transform="translate(952,1610)" d="m0 0h5v35h22v5h-26l-1-1z" fill="#FDFDFD"/>
<path transform="translate(1045,1125)" d="m0 0h12l9 1 1 1v13h-8l-13-5-2-2v-7z" fill="#FDFDFD"/>
<path transform="translate(1032,1042)" d="m0 0h15v17h-15l-1-2v-14z" fill="#FDFDFD"/>
<path transform="translate(1157,1007)" d="m0 0h18l1 1v12l-1 1h-18z" fill="#FDFDFD"/>
<path transform="translate(1164,1093)" d="m0 0h17v14l-1 1h-15l-1-1z" fill="#FDFDFD"/>
<path transform="translate(1043,1094)" d="m0 0 15 1 1 4-1 10-1 1h-14l-1-1v-14z" fill="#FDFDFD"/>
<path transform="translate(1294,1609)" d="m0 0h5v40l-1 1h-5v-40z" fill="#FDFDFD"/>
<path transform="translate(1057,1059)" d="m0 0 5 1v14l-1 1-15-1v-12l1-2z" fill="#FDFDFD"/>
<path transform="translate(791,1609)" d="m0 0 4 1v39l-4 1-1-1v-39z" fill="#FDFDFD"/>
<path transform="translate(1131,956)" d="m0 0h9l7 2v11l-3 2-12-3-1-1z" fill="#FDFDFD"/>
<path transform="translate(1323,900)" d="m0 0h51l1 2-2 1h-50z" fill="#83A947"/>
<path transform="translate(1400,740)" d="m0 0h7l2 1 1 5-1 7-2 2h-6l-1-2-1-12z" fill="#FDFDFD"/>
</svg>
